<svg xmlns="http://www.w3.org/2000/svg" version="1.1" xmlns:xlink="http://www.w3.org/1999/xlink" xmlns:svgjs="http://svgjs.dev/svgjs" width="1500" height="465" viewBox="0 0 1500 465"><g transform="matrix(1,0,0,1,-0.9090909090909918,0.5697729026822458)"><svg viewBox="0 0 396 123" data-background-color="#111111" preserveAspectRatio="xMidYMid meet" height="465" width="1500" xmlns="http://www.w3.org/2000/svg" xmlns:xlink="http://www.w3.org/1999/xlink"><g id="tight-bounds" transform="matrix(1,0,0,1,0.2400000000000091,-0.15071412264498463)"><svg viewBox="0 0 395.52 123.30142824528997" height="123.30142824528997" width="395.52"><g><svg viewBox="0 0 395.52 123.30142824528997" height="123.30142824528997" width="395.52"><g transform="matrix(1,0,0,1,0,90.0731923619796)"><svg viewBox="0 0 395.52 33.228235883310376" height="33.228235883310376" width="395.52"><g id="textblocktransform"><svg viewBox="0 0 395.52 33.228235883310376" height="33.228235883310376" width="395.52" id="textblock"><g><svg viewBox="0 0 395.52 33.228235883310376" height="33.228235883310376" width="395.52"><g transform="matrix(1,0,0,1,0,0)"><svg width="395.52" viewBox="1.25 -32.9 399.31 33.55" height="33.228235883310376" data-palette-color="#ff5858"><path d="M10.75-7.6L10.75-14.45 14.8-14.45 14.8-7.4Q14.8-4.4 13.68-2.65 12.55-0.9 10.7-0.18 8.85 0.55 6.7 0.55L6.7 0.55Q3.9 0.55 2.58-0.13 1.25-0.8 1.25-1.9L1.25-1.9Q1.25-2.6 1.55-3.1 1.85-3.6 2.1-3.85L2.1-3.85Q2.85-3.5 3.93-3.2 5-2.9 6.1-2.9L6.1-2.9Q8.35-2.9 9.55-4 10.75-5.1 10.75-7.6L10.75-7.6ZM14.8-28.8L14.8-13.25 10.75-13.25 10.75-30.3Q11-30.4 11.53-30.53 12.05-30.65 12.6-30.65L12.6-30.65Q13.7-30.65 14.25-30.23 14.8-29.8 14.8-28.8L14.8-28.8ZM41.25-11.35L24.45-9 24.25-12.15 39.35-14.2Q39.15-16.95 37.45-18.73 35.75-20.5 32.75-20.5L32.75-20.5Q29.65-20.5 27.62-18.28 25.6-16.05 25.6-11.9L25.6-11.9 25.6-10.8Q25.95-6.8 28.22-4.73 30.5-2.65 34.45-2.65L34.45-2.65Q36.55-2.65 38.25-3.35 39.95-4.05 40.95-4.85L40.95-4.85Q41.5-4.5 41.82-4.03 42.15-3.55 42.15-2.95L42.15-2.95Q42.15-2 41.07-1.18 40-0.35 38.22 0.15 36.45 0.65 34.25 0.65L34.25 0.65Q30.4 0.65 27.57-0.75 24.75-2.15 23.22-4.93 21.7-7.7 21.7-11.7L21.7-11.7Q21.7-14.55 22.52-16.78 23.35-19 24.82-20.55 26.3-22.1 28.35-22.93 30.4-23.75 32.8-23.75L32.8-23.75Q35.85-23.75 38.17-22.45 40.5-21.15 41.82-18.82 43.15-16.5 43.15-13.5L43.15-13.5Q43.15-12.4 42.65-11.93 42.15-11.45 41.25-11.35L41.25-11.35ZM68.95-15.25L68.95-15.25 68.95-10.15 64.95-10.15 64.95-15.05Q64.95-17.85 63.37-19.15 61.8-20.45 59.15-20.45L59.15-20.45Q57.15-20.45 55.6-19.95 54.05-19.45 52.95-18.8L52.95-18.8 52.95-10.15 48.95-10.15 48.95-18.6Q48.95-19.65 49.37-20.33 49.8-21 50.85-21.65L50.85-21.65Q52.15-22.4 54.3-23.08 56.45-23.75 59.15-23.75L59.15-23.75Q63.7-23.75 66.32-21.68 68.95-19.6 68.95-15.25ZM48.95-1.55L48.95-12.9 52.95-12.9 52.95-0.1Q52.7 0 52.2 0.13 51.7 0.25 51.1 0.25L51.1 0.25Q50.05 0.25 49.5-0.18 48.95-0.6 48.95-1.55L48.95-1.55ZM64.95-1.55L64.95-12.9 68.95-12.9 68.95-0.1Q68.7 0 68.17 0.13 67.65 0.25 67.1 0.25L67.1 0.25Q66 0.25 65.47-0.18 64.95-0.6 64.95-1.55L64.95-1.55ZM96.44-15.25L96.44-15.25 96.44-10.15 92.44-10.15 92.44-15.05Q92.44-17.85 90.87-19.15 89.29-20.45 86.64-20.45L86.64-20.45Q84.64-20.45 83.09-19.95 81.54-19.45 80.44-18.8L80.44-18.8 80.44-10.15 76.44-10.15 76.44-18.6Q76.44-19.65 76.87-20.33 77.29-21 78.34-21.65L78.34-21.65Q79.64-22.4 81.79-23.08 83.94-23.75 86.64-23.75L86.64-23.75Q91.19-23.75 93.82-21.68 96.44-19.6 96.44-15.25ZM76.44-1.55L76.44-12.9 80.44-12.9 80.44-0.1Q80.19 0 79.69 0.13 79.19 0.25 78.59 0.25L78.59 0.25Q77.54 0.25 76.99-0.18 76.44-0.6 76.44-1.55L76.44-1.55ZM92.44-1.55L92.44-12.9 96.44-12.9 96.44-0.1Q96.19 0 95.67 0.13 95.14 0.25 94.59 0.25L94.59 0.25Q93.49 0.25 92.97-0.18 92.44-0.6 92.44-1.55L92.44-1.55ZM103.59-30.4L103.59-30.4Q103.59-31.45 104.34-32.18 105.09-32.9 106.19-32.9L106.19-32.9Q107.34-32.9 108.04-32.18 108.74-31.45 108.74-30.4L108.74-30.4Q108.74-29.35 108.04-28.63 107.34-27.9 106.19-27.9L106.19-27.9Q105.09-27.9 104.34-28.63 103.59-29.35 103.59-30.4ZM104.19-1.55L104.19-13.2 108.19-13.2 108.19-0.1Q107.94 0 107.44 0.13 106.94 0.25 106.34 0.25L106.34 0.25Q105.29 0.25 104.74-0.18 104.19-0.6 104.19-1.55L104.19-1.55ZM108.19-21.5L108.19-11.25 104.19-11.25 104.19-23Q104.44-23.1 104.97-23.23 105.49-23.35 106.09-23.35L106.09-23.35Q107.14-23.35 107.67-22.93 108.19-22.5 108.19-21.5L108.19-21.5ZM116.69-1.55L116.69-26.95 120.09-27.25Q120.29-25.7 120.44-23.6 120.59-21.5 120.66-19.28 120.74-17.05 120.74-15.05L120.74-15.05 120.74-0.1Q120.49 0 119.96 0.13 119.44 0.25 118.89 0.25L118.89 0.25Q117.79 0.25 117.24-0.18 116.69-0.6 116.69-1.55L116.69-1.55ZM140.79-28.85L140.79-3.45 137.34-3.15Q136.84-7.35 136.76-11.73 136.69-16.1 136.69-20.2L136.69-20.2 136.69-30.3Q136.99-30.4 137.49-30.53 137.99-30.65 138.59-30.65L138.59-30.65Q139.69-30.65 140.24-30.23 140.79-29.8 140.79-28.85L140.79-28.85ZM137.04-4L140.79-4.95 140.79-5.15 140.79-0.55Q140.34-0.2 139.64 0.05 138.94 0.3 138.09 0.3L138.09 0.3Q136.89 0.3 136.04-0.18 135.19-0.65 134.49-1.9L134.49-1.9 124.99-17.9Q124.24-19.25 123.34-20.88 122.44-22.5 121.64-23.98 120.84-25.45 120.39-26.4L120.39-26.4 116.69-25.45 116.69-29.8Q117.09-30.2 117.81-30.45 118.54-30.7 119.39-30.7L119.39-30.7Q120.59-30.7 121.44-30.23 122.29-29.75 122.99-28.5L122.99-28.5 132.54-12.5Q133.34-11.15 134.21-9.53 135.09-7.9 135.84-6.43 136.59-4.95 137.04-4L137.04-4ZM148.64-30.4L148.64-30.4Q148.64-31.45 149.39-32.18 150.14-32.9 151.24-32.9L151.24-32.9Q152.39-32.9 153.09-32.18 153.79-31.45 153.79-30.4L153.79-30.4Q153.79-29.35 153.09-28.63 152.39-27.9 151.24-27.9L151.24-27.9Q150.14-27.9 149.39-28.63 148.64-29.35 148.64-30.4ZM149.24-1.55L149.24-13.2 153.24-13.2 153.24-0.1Q152.99 0 152.49 0.13 151.99 0.25 151.39 0.25L151.39 0.25Q150.34 0.25 149.79-0.18 149.24-0.6 149.24-1.55L149.24-1.55ZM153.24-21.5L153.24-11.25 149.24-11.25 149.24-23Q149.49-23.1 150.01-23.23 150.54-23.35 151.14-23.35L151.14-23.35Q152.19-23.35 152.71-22.93 153.24-22.5 153.24-21.5L153.24-21.5ZM171.73-20.4L171.73-20.4Q168.33-20.4 166.08-18.1 163.83-15.8 163.83-11.5L163.83-11.5Q163.83-7.25 166.01-4.95 168.18-2.65 171.73-2.65L171.73-2.65Q173.83-2.65 175.23-3.23 176.63-3.8 177.73-4.55L177.73-4.55Q178.28-4.25 178.63-3.8 178.98-3.35 178.98-2.7L178.98-2.7Q178.98-1.3 176.91-0.33 174.83 0.65 171.73 0.65L171.73 0.65Q168.28 0.65 165.56-0.68 162.83-2 161.28-4.7 159.73-7.4 159.73-11.5L159.73-11.5Q159.73-15.55 161.33-18.28 162.93-21 165.66-22.38 168.38-23.75 171.63-23.75L171.63-23.75Q174.73-23.75 176.76-22.7 178.78-21.65 178.78-20.3L178.78-20.3Q178.78-19.7 178.43-19.25 178.08-18.8 177.53-18.55L177.53-18.55Q176.43-19.3 175.11-19.85 173.78-20.4 171.73-20.4ZM200.88-19.15L191.08-10.55 188.58-12.5 199.98-23.55Q201.18-23.5 201.86-22.98 202.53-22.45 202.53-21.6L202.53-21.6Q202.53-20.9 202.11-20.35 201.68-19.8 200.88-19.15L200.88-19.15ZM199.13-1.15L188.48-11.85 191.28-13.5 203.98-2.1Q203.88-1 203.31-0.35 202.73 0.3 201.78 0.3L201.78 0.3Q201.03 0.3 200.41-0.1 199.78-0.5 199.13-1.15L199.13-1.15ZM185.03-1.55L185.03-13.4 189.03-12.8 189.03-0.1Q188.78 0 188.28 0.13 187.78 0.25 187.18 0.25L187.18 0.25Q186.13 0.25 185.58-0.18 185.03-0.6 185.03-1.55L185.03-1.55ZM189.03-30.95L189.03-10.85 185.03-11.45 185.03-32.4Q185.28-32.5 185.81-32.63 186.33-32.75 186.93-32.75L186.93-32.75Q187.98-32.75 188.51-32.33 189.03-31.9 189.03-30.95L189.03-30.95ZM233.48-22.85L233.48-22.85Q233.88-23.05 234.48-23.2 235.08-23.35 235.73-23.35L235.73-23.35Q236.73-23.35 237.4-23.03 238.08-22.7 238.28-22.05L238.28-22.05Q239.53-18.45 240.55-15.38 241.58-12.3 242.5-9.43 243.43-6.55 244.38-3.5L244.38-3.5 244.58-3.5Q245.53-8 246.43-12.28 247.33-16.55 248.18-20.95 249.03-25.35 249.73-30.35L249.73-30.35Q250.43-30.7 251.43-30.7L251.43-30.7Q252.38-30.7 252.93-30.28 253.48-29.85 253.48-29L253.48-29Q253.48-28.05 253.2-26.13 252.93-24.2 252.45-21.63 251.98-19.05 251.35-16.18 250.73-13.3 250.03-10.43 249.33-7.55 248.63-5 247.93-2.45 247.28-0.55L247.28-0.55Q246.83-0.3 246.13-0.08 245.43 0.15 244.53 0.15L244.53 0.15Q243.43 0.15 242.68-0.2 241.93-0.55 241.68-1.15L241.68-1.15Q240.98-2.9 239.98-5.78 238.98-8.65 237.9-12.08 236.83-15.5 235.83-18.85L235.83-18.85Q234.88-15.55 233.78-12 232.68-8.45 231.65-5.4 230.63-2.35 229.83-0.5L229.83-0.5Q229.48-0.3 228.75-0.08 228.03 0.15 227.13 0.15L227.13 0.15Q226.03 0.15 225.3-0.23 224.58-0.6 224.33-1.15L224.33-1.15Q223.83-2.4 223.1-4.9 222.38-7.4 221.58-10.63 220.78-13.85 220-17.32 219.23-20.8 218.55-24.03 217.88-27.25 217.48-29.75L217.48-29.75Q217.83-30.1 218.43-30.4 219.03-30.7 219.73-30.7L219.73-30.7Q220.63-30.7 221.13-30.28 221.63-29.85 221.83-28.85L221.83-28.85Q222.48-25.7 223.08-22.75 223.68-19.8 224.3-16.8 224.93-13.8 225.63-10.53 226.33-7.25 227.18-3.5L227.18-3.5 227.38-3.5Q228.08-5.75 228.73-7.8 229.38-9.85 230.08-12.03 230.78-14.2 231.6-16.8 232.43-19.4 233.48-22.85ZM277.67-11.35L260.87-9 260.67-12.15 275.77-14.2Q275.57-16.95 273.87-18.73 272.17-20.5 269.17-20.5L269.17-20.5Q266.07-20.5 264.05-18.28 262.02-16.05 262.02-11.9L262.02-11.9 262.02-10.8Q262.37-6.8 264.65-4.73 266.92-2.65 270.87-2.65L270.87-2.65Q272.97-2.65 274.67-3.35 276.37-4.05 277.37-4.85L277.37-4.85Q277.92-4.5 278.25-4.03 278.57-3.55 278.57-2.95L278.57-2.95Q278.57-2 277.5-1.18 276.42-0.35 274.65 0.15 272.87 0.65 270.67 0.65L270.67 0.65Q266.82 0.65 264-0.75 261.17-2.15 259.65-4.93 258.12-7.7 258.12-11.7L258.12-11.7Q258.12-14.55 258.95-16.78 259.77-19 261.25-20.55 262.72-22.1 264.77-22.93 266.82-23.75 269.22-23.75L269.22-23.75Q272.27-23.75 274.6-22.45 276.92-21.15 278.25-18.82 279.57-16.5 279.57-13.5L279.57-13.5Q279.57-12.4 279.07-11.93 278.57-11.45 277.67-11.35L277.67-11.35ZM295.67-23.75L295.67-23.75Q298.77-23.75 301.25-22.43 303.72-21.1 305.15-18.4 306.57-15.7 306.57-11.55L306.57-11.55Q306.57-7.35 305.1-4.65 303.62-1.95 301.02-0.65 298.42 0.65 294.97 0.65L294.97 0.65Q292.52 0.65 290.55 0.05 288.57-0.55 287.32-1.25L287.32-1.25Q286.27-1.95 285.87-2.55 285.47-3.15 285.47-4.2L285.47-4.2 285.47-20.85 289.47-20.85 289.47-4.2Q290.22-3.65 291.67-3.15 293.12-2.65 294.97-2.65L294.97-2.65Q298.37-2.65 300.45-4.8 302.52-6.95 302.52-11.55L302.52-11.55Q302.52-16.2 300.42-18.32 298.32-20.45 295.07-20.45L295.07-20.45Q293.07-20.45 291.52-19.68 289.97-18.9 288.97-17.9L288.97-17.9 288.22-21.15Q289.32-22 291.17-22.88 293.02-23.75 295.67-23.75ZM289.47-30.95L289.47-20.05 285.47-20.05 285.47-32.4Q285.72-32.5 286.25-32.63 286.77-32.75 287.37-32.75L287.37-32.75Q288.42-32.75 288.95-32.33 289.47-31.9 289.47-30.95L289.47-30.95ZM344.82-15.55L344.82-15.55Q344.82-9.3 341.82-6.08 338.82-2.85 332.97-2.85L332.97-2.85Q331.52-2.85 330.14-2.95 328.77-3.05 327.57-3.35L327.57-3.35 327.57-27.15Q328.57-27.35 329.77-27.45 330.97-27.55 332.52-27.55L332.52-27.55Q335.92-27.55 338.69-26.33 341.47-25.1 343.14-22.48 344.82-19.85 344.82-15.55ZM348.97-15.55L348.97-15.55Q348.97-20.7 346.89-24.1 344.82-27.5 341.14-29.23 337.47-30.95 332.57-30.95L332.57-30.95Q330.62-30.95 328.67-30.8 326.72-30.65 325.17-30.15L325.17-30.15Q324.37-29.9 323.94-29.48 323.52-29.05 323.52-28.25L323.52-28.25 323.52-2.55Q323.52-0.9 325.62-0.25L325.62-0.25Q327.42 0.3 329.44 0.43 331.47 0.55 333.02 0.55L333.02 0.55Q337.87 0.55 341.44-1.2 345.02-2.95 346.99-6.53 348.97-10.1 348.97-15.55ZM373.66-11.35L356.86-9 356.66-12.15 371.76-14.2Q371.56-16.95 369.86-18.73 368.16-20.5 365.16-20.5L365.16-20.5Q362.06-20.5 360.04-18.28 358.01-16.05 358.01-11.9L358.01-11.9 358.01-10.8Q358.36-6.8 360.64-4.73 362.91-2.65 366.86-2.65L366.86-2.65Q368.96-2.65 370.66-3.35 372.36-4.05 373.36-4.85L373.36-4.85Q373.91-4.5 374.24-4.03 374.56-3.55 374.56-2.95L374.56-2.95Q374.56-2 373.49-1.18 372.41-0.35 370.64 0.15 368.86 0.65 366.66 0.65L366.66 0.65Q362.81 0.65 359.99-0.75 357.16-2.15 355.64-4.93 354.11-7.7 354.11-11.7L354.11-11.7Q354.11-14.55 354.94-16.78 355.76-19 357.24-20.55 358.71-22.1 360.76-22.93 362.81-23.75 365.21-23.75L365.21-23.75Q368.26-23.75 370.59-22.45 372.91-21.15 374.24-18.82 375.56-16.5 375.56-13.5L375.56-13.5Q375.56-12.4 375.06-11.93 374.56-11.45 373.66-11.35L373.66-11.35ZM398.66-23.55L398.66-23.55Q399.51-23.55 400.04-23.1 400.56-22.65 400.56-21.8L400.56-21.8Q400.56-21.15 400.01-19.35 399.46-17.55 398.56-15.05 397.66-12.55 396.59-9.83 395.51-7.1 394.39-4.58 393.26-2.05 392.31-0.2L392.31-0.2Q392.06 0 391.44 0.15 390.81 0.3 390.11 0.3L390.11 0.3Q389.26 0.3 388.61 0.03 387.96-0.25 387.71-0.75L387.71-0.75Q387.16-1.75 386.29-3.68 385.41-5.6 384.41-8.05 383.41-10.5 382.39-13.13 381.36-15.75 380.51-18.18 379.66-20.6 379.11-22.45L379.11-22.45Q379.46-22.95 380.06-23.25 380.66-23.55 381.26-23.55L381.26-23.55Q382.16-23.55 382.66-23.1 383.16-22.65 383.51-21.6L383.51-21.6 386.61-12.65Q387.01-11.5 387.66-9.8 388.31-8.1 388.96-6.4 389.61-4.7 390.01-3.55L390.01-3.55 390.21-3.55Q392.21-8.6 393.96-13.53 395.71-18.45 396.96-23.15L396.96-23.15Q397.61-23.55 398.66-23.55Z" opacity="1" transform="matrix(1,0,0,1,0,0)" fill="#ff5858" class="wordmark-text-0" data-fill-palette-color="primary" id="text-0"></path></svg></g></svg></g></svg></g></svg></g><g transform="matrix(1,0,0,1,160.56779283339858,0)"><svg viewBox="0 0 74.38441433320283 74.38441433320283" height="74.38441433320283" width="74.38441433320283"><g><svg></svg></g><g id="icon-0"><svg viewBox="0 0 74.38441433320283 74.38441433320283" height="74.38441433320283" width="74.38441433320283"><g><path d="M0 37.192c0-20.541 16.652-37.192 37.192-37.192 20.541 0 37.192 16.652 37.192 37.192 0 20.541-16.652 37.192-37.192 37.192-20.541 0-37.192-16.652-37.192-37.192zM37.192 71.388c18.886 0 34.196-15.31 34.196-34.196 0-18.886-15.31-34.196-34.196-34.195-18.886 0-34.196 15.31-34.195 34.195 0 18.886 15.31 34.196 34.195 34.196z" data-fill-palette-color="accent" fill="#ed2647" stroke="transparent"></path><ellipse rx="36.8202850949354" ry="36.8202850949354" cx="37.19220716660141" cy="37.19220716660141" fill="#ed2647" stroke="transparent" stroke-width="0" fill-opacity="1" data-fill-palette-color="accent"></ellipse></g><g transform="matrix(1,0,0,1,20.01734776462178,21.65418437587676)"><svg viewBox="0 0 34.34971880395927 31.076045581449304" height="31.076045581449304" width="34.34971880395927"><g><svg xmlns="http://www.w3.org/2000/svg" xmlns:xlink="http://www.w3.org/1999/xlink" version="1.1" x="0" y="0" viewBox="11.825616704308068 12.928620007825483 76.3495712034977 69.07313472885038" enable-background="new 0 0 100 100" xml:space="preserve" height="31.076045581449304" width="34.34971880395927" class="icon-cg-0" data-fill-palette-color="quaternary" id="cg-0"><path fill-rule="evenodd" clip-rule="evenodd" d="M17.182 18.027c0.312 1.278-0.285 2.26-1.283 2.876-0.517 0.315-1.423 0.403-1.973 0.172-2.195-0.925-2.782-3.638-1.224-5.494 1.926-2.297 4.557-3.551 8.262-1.896 2.618 1.17 4.444 3.237 6.053 5.45 3.24 4.463 5.435 9.502 7.493 14.589 3.543 8.762 5.598 17.961 7.931 27.076 0.494 1.955 0.919 3.955 1.092 5.961 0.119 1.352 0.691 1.91 1.891 2.088 0.221 0.027 0.447 0 0.673 0-0.03-0.166-0.027-0.344-0.081-0.496-0.361-1.088-0.694-2.186-1.116-3.248-1.491-3.702-2.458-7.562-2.843-11.493-0.587-5.959 0.385-11.687 4.549-16.35 1.332-1.485 3.048-2.553 5.003-3.357 2.382-0.971 4.583 0.342 5.726 2.045 0.382 0.573 0.788 1.676 1.087 1.646 0.71-0.072 1.396-0.643 2.034-1.084 2.852-1.964 5.803-3.659 9.27-4.366 3.216-0.657 5.117 0.471 5.893 3.624 0.667 2.686-0.024 5.263-0.829 7.708-1.641 4.994-4.151 9.571-7.874 13.364-1.676 1.7-3.52 3.231-5.278 4.843-2.29 2.109-4.337 4.424-6.032 7.031-0.129 0.197-0.117 0.477-0.167 0.717 0.205-0.066 0.469-0.07 0.616-0.199 2.236-2.027 4.402-4.117 6.675-6.084 3.894-3.356 7.909-6.453 13.008-7.927 4.474-1.305 8.703 0.802 10.653 4.276 0.561 1.002 1.098 2.045 1.421 3.131 0.995 3.432-0.155 6.484-2.226 9.1-3.543 4.488-8.357 7.098-13.908 8.127-3.253 0.604-6.621 0.719-9.889-0.328-0.265-0.084-0.611 0.102-0.921 0.162 0.178 0.191 0.353 0.381 0.519 0.584 0.262 0.307 0.51 0.621 0.77 0.936-0.422 0.279-0.882 0.842-1.253 0.787-1.294-0.18-2.634-0.4-3.814-0.936-2.729-1.229-5.484-2.475-8.026-4.033-3.381-2.072-6.583-4.443-9.847-6.703-0.352-0.248-0.786-0.555-0.893-0.924-0.097-0.314 0.119-0.842 0.369-1.1 0.202-0.203 0.692-0.086 1.02-0.193 1.167-0.377 1.386-0.828 0.912-1.986-0.573-1.385-1.181-2.756-1.829-4.109-2.806-5.913-5.751-11.746-9.561-17.122-2.121-2.992-4.625-5.587-7.261-8.082-0.388-0.369-1.206-1.474-0.96 0.431 0.156 1.227-0.63 1.684-1.854 1.684-0.524 0-1.063-0.062-1.562-0.21-1.211-0.353-2.128-1.216-2.142-2.432-0.017-1.167 0.788-2.157 1.901-2.686 2.094-0.979 3.896-0.15 5.669 0.972 2.139 1.359 3.686 3.333 5.146 5.284 2.059 2.749 3.919 5.679 5.542 8.709 2.378 4.433 4.474 9.017 6.69 13.533 0.073 0.16 0.143 0.314 0.216 0.473 0.083-0.211 0.274-0.443 0.231-0.623-0.565-2.485-1.144-4.969-1.759-7.438-1.794-7.187-3.985-14.254-6.868-21.077-1.816-4.307-3.91-8.522-6.508-12.418-1.063-1.598-2.591-2.93-4.092-4.17-0.676-0.562-1.774-0.78-2.704-0.85C17.242 15.868 16.942 16.292 17.182 18.027z" fill="#ffffff" data-fill-palette-color="quaternary"></path></svg></g></svg></g></svg></g></svg></g><g></g></svg></g><defs></defs></svg><rect width="395.52" height="123.30142824528997" fill="none" stroke="none" visibility="hidden"></rect></g></svg></g></svg>